<svg id="Composant_80_9" data-name="Composant 80 – 9" xmlns="http://www.w3.org/2000/svg" xmlns:xlink="http://www.w3.org/1999/xlink" width="146" height="451" viewBox="0 0 146 451">
  <defs>
    <clipPath id="clip-path">
      <rect id="Rectangle_1779" data-name="Rectangle 1779" width="146" height="451" fill="#f9ae00" stroke="#707070" stroke-width="1"/>
    </clipPath>
  </defs>
  <g id="Groupe_de_masques_9" data-name="Groupe de masques 9" clip-path="url(#clip-path)">
    <path id="Tracé_11" data-name="Tracé 11" d="M200.679,490.658a9.247,9.247,0,0,1-2.59-.375c-64.866-18.959-115.354-47.089-150.067-83.6-30.232-31.807-40.3-61.52-43.614-76.4C-2.859,297.616-.325,269.261,11.942,246c11.029-20.914,29.52-37.126,54.961-48.184,26.283-11.425,59.1-16.824,94.362-15.947a257.634,257.634,0,0,1,.636-42.238c3.328-33.028,13.035-61.29,28.853-84,18.063-25.936,43.255-43.261,74.875-51.5C292.462-2.852,321.9-.1,350.749,12.109c28.687,12.135,55.356,33.06,77.122,60.512,24.781,31.254,54.971,85.781,58.069,168.062,2.873,76.287-18.223,157.764-62.7,242.166a9.262,9.262,0,0,1-16.373-8.665c117-222.016,34.571-354.7,6.52-390.081-39.644-50-95.792-74.361-143.053-62.053C200.654,40.2,184.023,104.7,180.311,141.532a241.007,241.007,0,0,0-.447,41.369,329.835,329.835,0,0,1,36.712,5.252c54.215,10.864,97.989,33.888,117.095,61.59,18.385,26.657,13.946,56.232-12.5,83.275a9.2,9.2,0,0,1-2.3,1.714c-11.743,10.145-24.03,16.45-36.579,18.764-13.242,2.442-26.484.443-39.358-5.935-25.66-12.713-48.346-42.152-63.881-82.9a284.616,284.616,0,0,1-15.975-64.14c-33.439-1.039-64.73,3.821-88.771,14.271-46.377,20.161-63.819,57.675-51.841,111.5,5.213,23.43,33.656,103.22,180.767,146.219a9.254,9.254,0,0,1-2.559,18.143M181.9,201.717A265.246,265.246,0,0,0,196.343,258.1c13.664,35.834,33.629,62.4,54.775,72.872,19.49,9.656,39.226,5.282,58.67-13q.277-.261.571-.5c17.985-19.708,20.711-38.957,8.091-57.255-16.189-23.471-56.6-44.135-105.465-53.927a306.4,306.4,0,0,0-31.087-4.587" transform="translate(-137.214 -146.234) rotate(40)" fill="#0067da"/>
  </g>
</svg>
