<svg id="Composant_66_1" data-name="Composant 66 – 1" xmlns="http://www.w3.org/2000/svg" xmlns:xlink="http://www.w3.org/1999/xlink" width="192" height="186" viewBox="0 0 192 186">
  <defs>
    <clipPath id="clip-path">
      <rect id="Rectangle_2622" data-name="Rectangle 2622" width="192" height="186" transform="translate(1728 561)" fill="none" stroke="#707070" stroke-width="1"/>
    </clipPath>
    <clipPath id="clip-path-2">
      <rect id="Rectangle_1780" data-name="Rectangle 1780" width="225" height="458" transform="translate(1643.68 3775)" fill="#f9ae00" stroke="#707070" stroke-width="1"/>
    </clipPath>
  </defs>
  <g id="Groupe_de_masques_38265" data-name="Groupe de masques 38265" transform="translate(-1728 -561)" clip-path="url(#clip-path)">
    <g id="Groupe_de_masques_10" data-name="Groupe de masques 10" transform="translate(51.32 -3459)" clip-path="url(#clip-path-2)">
      <path id="Tracé_12" data-name="Tracé 12" d="M286.89,702.9a13.249,13.249,0,0,1-3.713-.533C190.2,675.306,117.852,635.078,68.142,582.8c-43.294-45.535-57.68-88.105-62.4-109.428-10.364-46.8-6.68-87.445,10.951-120.807,15.852-30,42.4-53.264,78.893-69.158,37.708-16.422,84.77-24.218,135.335-23.022a369.148,369.148,0,0,1,.987-60.541c4.83-47.345,18.8-87.869,41.521-120.446,25.946-37.205,62.1-62.082,107.454-73.94C419.368-4.6,461.571-.7,502.919,16.738c41.114,17.343,79.316,47.286,110.479,86.6,35.478,44.752,78.672,122.852,82.97,240.779,3.985,109.335-26.408,226.153-90.337,347.2a13.266,13.266,0,1,1-23.461-12.391c168.161-318.419,50.2-508.451,10.036-559.109C535.849,48.222,455.381,13.406,387.59,31.129c-99.943,26.129-123.9,118.608-129.29,171.408a345.313,345.313,0,0,0-.714,59.295,472.672,472.672,0,0,1,52.633,7.462c77.72,15.475,140.447,48.4,167.795,88.069,26.315,38.175,19.9,80.571-18.069,119.379a13.239,13.239,0,0,1-3.3,2.461c-16.856,14.561-34.486,23.621-52.484,26.958-18.992,3.524-37.976.682-56.425-8.437-36.771-18.176-69.25-60.331-91.454-118.7a407.094,407.094,0,0,1-22.794-91.9c-47.947-1.43-92.823,5.59-127.314,20.61-66.536,28.978-91.612,82.778-74.531,159.9,7.433,33.573,48.078,147.884,258.946,209.254a13.269,13.269,0,0,1-3.7,26.008M260.469,288.8a379.368,379.368,0,0,0,20.613,80.793c19.529,51.337,48.11,89.371,78.414,104.35,27.929,13.806,56.237,7.5,84.151-18.729q.4-.374.82-.711c25.823-28.278,29.766-55.872,11.7-82.077C433,338.81,375.087,309.265,305.037,295.317a439.057,439.057,0,0,0-44.568-6.519" transform="translate(1670.864 3529.894)" fill="#f9ae00"/>
    </g>
  </g>
</svg>
